Patient4_TMGait_0pt4_01_left_23_GRF.mot
version=1
nRows=26
nColumns=19
inDegrees=no
endheader
time	F1x	F1y	F1z	M1x	M1y	M1z	F2x	F2y	F2z	M2x	M2y	M2z	EC1x	EC1y	EC1z	EC2x	EC2y	EC2z
27.66	-3.519	4.2335	-8.5029	-0.36873	5.3938	11.405	-2.566	724.4671	-74.5838	306.7393	60.5478	636.0786	-0.0592	0.0182	-0.0073	-0.0462	0.0165	0.9585
27.6728	-2.6528	3.9135	-5.6036	-0.60235	3.4106	8.8355	2.9957	722.2956	-70.0794	303.8932	55.4055	632.7714	-0.0592	0.0182	-0.0073	-0.0462	0.0165	0.9585
27.6856	-1.8701	3.6342	-3.1775	-0.79945	1.7707	6.6478	8.4119	720.2731	-66.1375	301.3491	50.5855	629.0119	-0.0592	0.0182	-0.0073	-0.0462	0.0165	0.9585
27.6984	-1.2247	3.4248	-1.3439	-0.95205	0.5464	4.9816	13.3897	719.2489	-63.0588	299.5631	46.4092	625.6117	-0.0592	0.0182	-0.0073	-0.0462	0.0165	0.9585
27.7111	-0.77075	3.3122	-0.093447	-1.0684	-0.28044	3.8777	17.7901	720.0633	-60.9161	298.8839	43.0048	623.4251	-0.0592	0.0182	-0.0073	-0.0462	0.0165	0.9585
27.7239	-0.48107	3.2742	0.67644	-1.1513	-0.78548	3.2309	21.5612	723.1896	-59.6138	299.4593	40.3531	622.9888	-0.0592	0.0182	-0.0073	-0.0462	0.0165	0.9585
27.7367	-0.3451	3.2708	1.0764	-1.2016	-1.0496	2.9177	24.687	728.6199	-59.0209	301.2108	38.4041	624.4243	-0.0592	0.0182	-0.0073	-0.0462	0.0165	0.9585
27.7495	-0.32978	3.238	1.2335	-1.2119	-1.1659	2.7791	27.2125	735.8536	-58.9498	303.8569	37.0395	627.3975	-0.0592	0.0182	-0.0073	-0.0462	0.0165	0.9585
27.7623	-0.42259	3.0887	1.2377	-1.1645	-1.1977	2.6474	29.1945	744.0142	-59.2254	306.9735	36.1333	631.2292	-0.0592	0.0182	-0.0073	-0.0462	0.0165	0.9585
27.7751	-0.60079	2.7294	1.16	-1.0347	-1.1947	2.3673	30.7485	752.0337	-59.6789	310.0697	35.5341	635.0465	-0.0592	0.0182	-0.0073	-0.0462	0.0165	0.9585
27.7879	-0.82785	2.0433	1.0432	-0.78887	-1.1796	1.7619	31.9715	758.8023	-60.1734	312.6505	35.1155	637.9389	-0.0592	0.0182	-0.0073	-0.0462	0.0165	0.9585
27.8006	-1.0761	0.94179	0.91775	-0.39797	-1.1666	0.71055	32.9383	763.2849	-60.5688	314.274	34.744	639.0373	-0.0592	0.0182	-0.0073	-0.0462	0.0165	0.9585
27.8134	-1.2703	-0.65658	0.79099	0.1622	-1.1303	-0.91442	33.7394	764.7706	-60.7603	314.64	34.3093	637.7535	-0.0592	0.0182	-0.0073	-0.0462	0.0165	0.9585
27.8262	-1.3392	-2.7536	0.65893	0.89108	-1.0376	-3.1113	34.4505	762.9771	-60.6691	313.6321	33.7192	633.857	-0.0592	0.0182	-0.0073	-0.0462	0.0165	0.9585
27.839	-1.1551	-5.2312	0.50109	1.7444	-0.82303	-5.7647	35.1221	757.9979	-60.3077	311.2929	32.9607	627.416	-0.0592	0.0182	-0.0073	-0.0462	0.0165	0.9585
27.8518	-0.57485	-7.7703	0.29838	2.6114	-0.4175	-8.5258	35.798	750.3019	-59.7574	307.8095	32.0782	618.8351	-0.0592	0.0182	-0.0073	-0.0462	0.0165	0.9585
27.8646	0.58136	-9.7673	0.016778	3.2814	0.27413	-10.7522	36.5374	740.6275	-59.1446	303.4818	31.1497	608.7213	-0.0592	0.0182	-0.0073	-0.0462	0.0165	0.9585
27.8774	2.4951	-10.2174	-0.34279	3.412	1.3143	-11.364	37.3571	729.9174	-58.5916	298.6927	30.2586	597.8768	-0.0592	0.0182	-0.0073	-0.0462	0.0165	0.9585
27.8901	5.3028	-7.672	-0.78474	2.5093	2.7518	-8.7969	38.311	719.1043	-58.2151	293.8199	29.4783	587.0865	-0.0592	0.0182	-0.0073	-0.0462	0.0165	0.9585
27.9029	9.0379	-0.23038	-1.2505	-0.072279	4.5338	-1.0009	39.3935	708.8454	-58.0766	289.1255	28.8547	576.9375	-0.0592	0.0182	-0.0073	-0.0462	0.0165	0.9585
27.9157	13.5041	14.3919	-1.662	-5.1038	6.5106	14.5007	40.544	699.2312	-58.1727	284.6428	28.4123	567.565	-0.0592	0.0182	-0.0073	-0.0462	0.0165	0.9585
27.9285	18.1664	38.5207	-1.8425	-13.367	8.3142	40.2437	41.6177	689.6553	-58.3815	280.1243	28.1193	558.5668	-0.0592	0.0182	-0.0073	-0.0462	0.0165	0.9585
27.9413	21.9643	74.0009	-1.5646	-25.474	9.3371	78.2741	42.4276	678.8206	-58.4661	275.0509	27.879	548.9839	-0.0592	0.0182	-0.0073	-0.0462	0.0165	0.9585
27.9541	23.1927	121.3105	-0.47665	-41.5644	8.6217	129.1893	42.7856	664.9521	-58.0836	268.7225	27.5129	537.4359	-0.0592	0.0182	-0.0073	-0.0462	0.0165	0.9585
27.9669	19.9393	178.9207	1.8101	-61.095	5.1068	191.4781	42.5493	646.2321	-56.9027	260.4277	26.8327	522.4721	-0.0592	0.0182	-0.0073	-0.0462	0.0165	0.9585
27.9796	11.6658	243.5368	5.6064	-82.9166	-1.7188	261.6768	41.7142	621.2757	-54.6636	249.6409	25.6486	502.9093	-0.0592	0.0182	-0.0073	-0.0462	0.0165	0.9585
